<svg width="21" height="21" viewBox="0 0 21 21" fill="none" xmlns="http://www.w3.org/2000/svg">
<path d="M10.5 0C4.70138 0 0 4.70138 0 10.5C0 16.2986 4.70138 21 10.5 21C16.2986 21 21 16.2986 21 10.5C21 4.70138 16.2986 0 10.5 0ZM7.54775 14.875C6.76288 14.875 6.125 14.2389 6.125 13.454C6.125 12.6691 6.76288 12.033 7.54775 12.033C8.33263 12.033 8.9705 12.6691 8.9705 13.454C8.9705 14.2389 8.33263 14.875 7.54775 14.875ZM10.9471 14.875C10.9209 12.2307 8.77275 10.0853 6.125 10.059V7.95375C9.94088 7.98 13.0279 11.0644 13.055 14.875H10.9471ZM14.518 14.875C14.504 10.2401 10.7529 6.50038 6.125 6.48025V4.375C11.9201 4.39513 16.6119 9.086 16.625 14.875H14.518Z" fill="white"/>
</svg>
