<svg width="21" height="21" viewBox="0 0 21 21" fill="none" xmlns="http://www.w3.org/2000/svg">
<path d="M10.5 0C4.70138 0 0 4.70138 0 10.5C0 16.2986 4.70138 21 10.5 21C16.2986 21 21 16.2986 21 10.5C21 4.70138 16.2986 0 10.5 0ZM15.8077 8.43938C15.9679 11.9744 13.3315 15.9154 8.66425 15.9154C7.245 15.9154 5.92463 15.4989 4.8125 14.7858C6.146 14.9433 7.47687 14.5722 8.533 13.7454C7.434 13.7252 6.50562 12.9981 6.1845 11.9997C6.57912 12.075 6.96763 12.0531 7.32025 11.9569C6.11188 11.7136 5.27712 10.6251 5.30425 9.4605C5.64375 9.64863 6.0305 9.7615 6.44262 9.77462C5.3235 9.0265 5.00675 7.54862 5.66475 6.419C6.90375 7.93975 8.75612 8.93987 10.8448 9.04487C10.4781 7.47337 11.6707 5.95875 13.2939 5.95875C14.0157 5.95875 14.6694 6.26412 15.1279 6.75238C15.7001 6.64038 16.2391 6.43037 16.7239 6.1425C16.5358 6.72962 16.1376 7.22138 15.6188 7.53288C16.1271 7.47163 16.6119 7.33688 17.0616 7.1365C16.7256 7.64225 16.3004 8.085 15.8077 8.43938V8.43938Z" fill="white"/>
</svg>
