<svg width="21" height="21" viewBox="0 0 21 21" fill="none" xmlns="http://www.w3.org/2000/svg">
<path d="M10.5 0C4.70138 0 0 4.70138 0 10.5C0 16.2986 4.70138 21 10.5 21C16.2986 21 21 16.2986 21 10.5C21 4.70138 16.2986 0 10.5 0ZM14.3859 14.7805C12.5466 14.9065 8.44988 14.9065 6.61325 14.7805C4.62175 14.644 4.38988 13.6692 4.375 10.5C4.38988 7.32463 4.62438 6.356 6.61325 6.2195C8.44988 6.0935 12.5475 6.0935 14.3859 6.2195C16.3782 6.356 16.6093 7.33075 16.625 10.5C16.6093 13.6754 16.3756 14.644 14.3859 14.7805ZM8.75 8.45075L13.0524 10.4965L8.75 12.5493V8.45075V8.45075Z" fill="white"/>
</svg>
